<?xml version="1.0" encoding="UTF-8"?>
<svg xmlns="http://www.w3.org/2000/svg" xmlns:xlink="http://www.w3.org/1999/xlink" viewBox="0 0 16 16" width="16px" height="16px">
<g id="surface21772034">
<path style=" stroke:none;fill-rule:nonzero;fill:rgb(80.000001%,80.000001%,80.000001%);fill-opacity:1;" d="M 16 2.535156 C 15.417969 2.796875 14.816406 2.96875 14.15625 3.046875 L 14.152344 3.035156 C 14.828125 2.632812 15.3125 2.003906 15.558594 1.238281 C 14.925781 1.613281 14.222656 1.886719 13.472656 2.035156 C 12.875 1.394531 12.019531 0.996094 11.078125 0.996094 C 9.265625 0.996094 7.792969 2.46875 7.792969 4.28125 C 7.792969 4.535156 7.824219 4.789062 7.878906 5.027344 C 5.152344 4.890625 2.734375 3.582031 1.113281 1.597656 C 0.832031 2.082031 0.667969 2.644531 0.667969 3.246094 C 0.667969 4.386719 1.246094 5.390625 2.128906 5.980469 C 1.589844 5.960938 1.085938 5.816406 0.644531 5.570312 C 0.644531 5.582031 0.644531 5.597656 0.644531 5.609375 C 0.644531 7.199219 1.773438 8.527344 3.277344 8.828125 C 3 8.902344 2.710938 8.945312 2.410156 8.945312 C 2.199219 8.945312 1.992188 8.921875 1.792969 8.886719 C 2.210938 10.1875 3.425781 11.136719 4.859375 11.164062 C 3.738281 12.046875 2.320312 12.570312 0.785156 12.570312 C 0.519531 12.570312 0.257812 12.554688 0 12.523438 C 1.453125 13.457031 3.179688 14 5.03125 14 C 11.070312 14 14.371094 8.996094 14.371094 4.660156 C 14.371094 4.519531 14.367188 4.375 14.363281 4.234375 C 15.003906 3.773438 15.558594 3.195312 16 2.535156 Z M 16 2.535156 "/>
</g>
</svg>
