<?xml version="1.0" standalone="no"?>
<!DOCTYPE svg PUBLIC "-//W3C//DTD SVG 20010904//EN"
 "http://www.w3.org/TR/2001/REC-SVG-20010904/DTD/svg10.dtd">
<svg version="1.0" xmlns="http://www.w3.org/2000/svg"
 width="500.000000pt" height="500.000000pt" viewBox="0 0 500.000000 500.000000"
 preserveAspectRatio="xMidYMid meet">
<metadata>
Created by potrace 1.14, written by Peter Selinger 2001-2017
</metadata>
<g transform="translate(0.000000,500.000000) scale(0.100000,-0.100000)"
fill="#000000" stroke="none">
<path d="M2270 4794 c-391 -49 -745 -175 -1038 -372 -538 -362 -889 -900
-1003 -1537 -21 -114 -24 -162 -24 -385 0 -287 15 -405 81 -633 225 -781 860
-1400 1641 -1597 219 -55 305 -65 578 -65 280 0 403 16 625 80 765 220 1365
819 1584 1582 66 228 81 346 81 633 0 287 -15 405 -81 633 -220 763 -819 1362
-1584 1582 -208 60 -337 77 -595 80 -126 2 -246 1 -265 -1z m495 -1015 c399
-46 812 -227 1136 -498 224 -187 424 -440 551 -696 l42 -85 -42 -85 c-283
-571 -840 -1011 -1462 -1154 -314 -73 -668 -72 -985 1 -617 142 -1175 584
-1457 1153 l-42 85 42 85 c167 337 440 642 767 858 120 79 364 197 499 241
312 102 619 133 951 95z"/>
<path d="M2270 3579 c-232 -49 -441 -173 -606 -361 -351 -400 -353 -1027 -4
-1430 157 -181 342 -296 579 -360 109 -29 335 -36 454 -14 282 53 519 201 692
431 101 134 168 288 201 462 23 122 15 344 -16 463 -109 412 -436 726 -847
809 -134 28 -320 28 -453 0z"/>
</g>
</svg>
